<mxfile host="app.diagrams.net" agent="Mozilla/5.0 (Windows NT 10.0; Win64; x64) AppleWebKit/537.36 (KHTML, like Gecko) Chrome/137.0.0.0 Safari/537.36" version="28.0.6">
  <diagram name="Page-1" id="94bXOTS2WWCiqByaz2MC">
    <mxGraphModel dx="524" dy="278" grid="0" gridSize="10" guides="1" tooltips="1" connect="1" arrows="1" fold="1" page="1" pageScale="1" pageWidth="480" pageHeight="270" background="#333333" math="0" shadow="0">
      <root>
        <mxCell id="0" />
        <mxCell id="1" parent="0" />
        <mxCell id="A6wWkIlvrUM8H3mJnrMB-10" style="edgeStyle=orthogonalEdgeStyle;rounded=0;orthogonalLoop=1;jettySize=auto;html=1;entryX=0.5;entryY=0;entryDx=0;entryDy=0;strokeColor=#D4E1F5;fillColor=#cdeb8b;" edge="1" parent="1" source="A6wWkIlvrUM8H3mJnrMB-3" target="A6wWkIlvrUM8H3mJnrMB-5">
          <mxGeometry relative="1" as="geometry" />
        </mxCell>
        <mxCell id="A6wWkIlvrUM8H3mJnrMB-12" style="edgeStyle=orthogonalEdgeStyle;rounded=0;orthogonalLoop=1;jettySize=auto;html=1;strokeColor=#D4E1F5;" edge="1" parent="1" source="A6wWkIlvrUM8H3mJnrMB-3" target="A6wWkIlvrUM8H3mJnrMB-8">
          <mxGeometry relative="1" as="geometry" />
        </mxCell>
        <mxCell id="A6wWkIlvrUM8H3mJnrMB-3" value="&lt;div&gt;&lt;font style=&quot;font-size: 8px;&quot;&gt;&lt;br&gt;&amp;nbsp; &amp;nbsp; &amp;nbsp; &amp;nbsp; void start();&amp;nbsp; &amp;nbsp; &amp;nbsp; &amp;nbsp; &amp;nbsp;&amp;nbsp;&lt;/font&gt;&lt;/div&gt;&lt;div&gt;&lt;font style=&quot;font-size: 8px;&quot;&gt;&amp;nbsp; &amp;nbsp; &amp;nbsp; &amp;nbsp; &amp;nbsp;void stop();&amp;nbsp; &amp;nbsp; &amp;nbsp; &amp;nbsp; &amp;nbsp; &amp;nbsp;&amp;nbsp;&lt;br&gt;&lt;/font&gt;&lt;span style=&quot;font-size: 8px; background-color: transparent; color: light-dark(rgb(0, 0, 0), rgb(255, 255, 255));&quot;&gt;&amp;nbsp; &amp;nbsp; &amp;nbsp; void accelerate();&lt;/span&gt;&lt;/div&gt;" style="rounded=0;whiteSpace=wrap;html=1;fillColor=#cce5ff;strokeColor=#36393d;" vertex="1" parent="1">
          <mxGeometry x="199" y="21" width="91" height="69" as="geometry" />
        </mxCell>
        <mxCell id="A6wWkIlvrUM8H3mJnrMB-4" value="&lt;b&gt;&lt;font style=&quot;color: rgb(0, 0, 0);&quot;&gt;&amp;nbsp; Engine&amp;nbsp;&amp;nbsp;&lt;/font&gt;&lt;/b&gt;" style="text;html=1;align=center;verticalAlign=middle;whiteSpace=wrap;rounded=0;" vertex="1" parent="1">
          <mxGeometry x="189.5" y="21" width="110" height="30" as="geometry" />
        </mxCell>
        <mxCell id="A6wWkIlvrUM8H3mJnrMB-14" style="edgeStyle=orthogonalEdgeStyle;rounded=0;orthogonalLoop=1;jettySize=auto;html=1;strokeColor=#D4E1F5;" edge="1" parent="1" source="A6wWkIlvrUM8H3mJnrMB-5" target="A6wWkIlvrUM8H3mJnrMB-9">
          <mxGeometry relative="1" as="geometry">
            <Array as="points">
              <mxPoint x="100" y="234" />
            </Array>
          </mxGeometry>
        </mxCell>
        <mxCell id="A6wWkIlvrUM8H3mJnrMB-5" value="&lt;div&gt;&lt;font style=&quot;font-size: 8px; color: rgb(255, 255, 255);&quot;&gt;&lt;b&gt;ElectricEngine implements Engine&lt;/b&gt;&lt;br&gt;&amp;nbsp; &amp;nbsp; &amp;nbsp; &amp;nbsp; void start();&amp;nbsp; &amp;nbsp; &amp;nbsp; &amp;nbsp; &amp;nbsp; &amp;nbsp;&amp;nbsp;&lt;/font&gt;&lt;/div&gt;&lt;div&gt;&lt;font style=&quot;color: rgb(255, 255, 255);&quot;&gt;&lt;font style=&quot;font-size: 8px;&quot;&gt;&amp;nbsp; &amp;nbsp; &amp;nbsp; &amp;nbsp; &amp;nbsp;void stop();&amp;nbsp; &amp;nbsp; &amp;nbsp; &amp;nbsp; &amp;nbsp; &amp;nbsp; &amp;nbsp;&amp;nbsp;&lt;br&gt;&lt;/font&gt;&lt;span style=&quot;font-size: 8px; background-color: transparent;&quot;&gt;&amp;nbsp; &amp;nbsp; &amp;nbsp; void accelerate();&amp;nbsp;&amp;nbsp;&lt;/span&gt;&lt;/font&gt;&lt;/div&gt;" style="rounded=0;whiteSpace=wrap;html=1;fillColor=#60a917;strokeColor=#2D7600;fontColor=#ffffff;" vertex="1" parent="1">
          <mxGeometry x="32" y="115" width="136" height="69" as="geometry" />
        </mxCell>
        <mxCell id="A6wWkIlvrUM8H3mJnrMB-7" value="&lt;div&gt;&lt;font style=&quot;font-size: 8px; color: rgb(0, 0, 0);&quot;&gt;&lt;b style=&quot;&quot;&gt;HybridEngine implements Engine&lt;/b&gt;&lt;br&gt;&amp;nbsp; &amp;nbsp; &amp;nbsp; &amp;nbsp; void start();&amp;nbsp; &amp;nbsp; &amp;nbsp; &amp;nbsp; &amp;nbsp; &amp;nbsp;&amp;nbsp;&lt;/font&gt;&lt;/div&gt;&lt;div&gt;&lt;font&gt;&lt;font style=&quot;font-size: 8px; color: rgb(0, 0, 0);&quot;&gt;&amp;nbsp; &amp;nbsp; &amp;nbsp; &amp;nbsp; &amp;nbsp;void stop();&amp;nbsp; &amp;nbsp; &amp;nbsp; &amp;nbsp; &amp;nbsp; &amp;nbsp; &amp;nbsp;&amp;nbsp;&lt;br&gt;&lt;/font&gt;&lt;span style=&quot;font-size: 8px; background-color: transparent;&quot;&gt;&lt;font style=&quot;color: rgb(0, 0, 0);&quot;&gt;&amp;nbsp; &amp;nbsp; &amp;nbsp; void accelerate();&amp;nbsp;&amp;nbsp;&lt;/font&gt;&lt;/span&gt;&lt;/font&gt;&lt;/div&gt;" style="rounded=0;whiteSpace=wrap;html=1;fillColor=#cdeb8b;strokeColor=#36393d;" vertex="1" parent="1">
          <mxGeometry x="190" y="115" width="136" height="69" as="geometry" />
        </mxCell>
        <mxCell id="A6wWkIlvrUM8H3mJnrMB-18" style="edgeStyle=orthogonalEdgeStyle;rounded=0;orthogonalLoop=1;jettySize=auto;html=1;entryX=1;entryY=0.5;entryDx=0;entryDy=0;strokeColor=#D4E1F5;" edge="1" parent="1" source="A6wWkIlvrUM8H3mJnrMB-8" target="A6wWkIlvrUM8H3mJnrMB-9">
          <mxGeometry relative="1" as="geometry">
            <Array as="points">
              <mxPoint x="393" y="234" />
            </Array>
          </mxGeometry>
        </mxCell>
        <mxCell id="A6wWkIlvrUM8H3mJnrMB-8" value="&lt;div&gt;&lt;font style=&quot;font-size: 8px; color: rgb(255, 255, 255);&quot;&gt;&lt;b&gt;PetrolEngine implements Engine&lt;/b&gt;&lt;br&gt;&amp;nbsp; &amp;nbsp; &amp;nbsp; &amp;nbsp; void start();&amp;nbsp; &amp;nbsp; &amp;nbsp; &amp;nbsp; &amp;nbsp; &amp;nbsp;&amp;nbsp;&lt;/font&gt;&lt;/div&gt;&lt;div&gt;&lt;font style=&quot;color: rgb(255, 255, 255);&quot;&gt;&lt;font style=&quot;font-size: 8px;&quot;&gt;&amp;nbsp; &amp;nbsp; &amp;nbsp; &amp;nbsp; &amp;nbsp;void stop();&amp;nbsp; &amp;nbsp; &amp;nbsp; &amp;nbsp; &amp;nbsp; &amp;nbsp; &amp;nbsp;&amp;nbsp;&lt;br&gt;&lt;/font&gt;&lt;span style=&quot;font-size: 8px; background-color: transparent;&quot;&gt;&amp;nbsp; &amp;nbsp; &amp;nbsp; void accelerate();&amp;nbsp;&amp;nbsp;&lt;/span&gt;&lt;/font&gt;&lt;/div&gt;" style="rounded=0;whiteSpace=wrap;html=1;fillColor=#e51400;strokeColor=#B20000;fontColor=#ffffff;" vertex="1" parent="1">
          <mxGeometry x="337" y="115" width="136" height="69" as="geometry" />
        </mxCell>
        <mxCell id="A6wWkIlvrUM8H3mJnrMB-9" value="&lt;b&gt;Business Class&lt;/b&gt;" style="rounded=1;whiteSpace=wrap;html=1;fillColor=#cce5ff;strokeColor=#36393d;" vertex="1" parent="1">
          <mxGeometry x="199" y="211" width="102" height="46" as="geometry" />
        </mxCell>
        <mxCell id="A6wWkIlvrUM8H3mJnrMB-11" style="edgeStyle=orthogonalEdgeStyle;rounded=0;orthogonalLoop=1;jettySize=auto;html=1;entryX=0.4;entryY=0.014;entryDx=0;entryDy=0;entryPerimeter=0;fillColor=#cce5ff;strokeColor=#D4E1F5;" edge="1" parent="1" source="A6wWkIlvrUM8H3mJnrMB-3" target="A6wWkIlvrUM8H3mJnrMB-7">
          <mxGeometry relative="1" as="geometry" />
        </mxCell>
        <mxCell id="A6wWkIlvrUM8H3mJnrMB-17" style="edgeStyle=orthogonalEdgeStyle;rounded=0;orthogonalLoop=1;jettySize=auto;html=1;entryX=0.578;entryY=-0.007;entryDx=0;entryDy=0;entryPerimeter=0;strokeColor=#D4E1F5;" edge="1" parent="1" source="A6wWkIlvrUM8H3mJnrMB-7" target="A6wWkIlvrUM8H3mJnrMB-9">
          <mxGeometry relative="1" as="geometry" />
        </mxCell>
        <mxCell id="A6wWkIlvrUM8H3mJnrMB-19" value="&lt;font style=&quot;color: rgb(212, 225, 245);&quot;&gt;&lt;b&gt;I N H E R I T A N C E&lt;/b&gt;&lt;/font&gt;" style="text;html=1;align=center;verticalAlign=middle;whiteSpace=wrap;rounded=0;" vertex="1" parent="1">
          <mxGeometry x="37" y="15" width="130" height="30" as="geometry" />
        </mxCell>
      </root>
    </mxGraphModel>
  </diagram>
</mxfile>
